# xmcd CD database file
#
# Track frame offsets:
#	150
#	16414
#	33759
#	46175
#	64666
#	86925
#	107301
#	124917
#	141106
#	157096
#	173154
#	189637
#	203031
#	223642
#	234520
#	258225
#	271109
#	292255
#	310012
#	323190
#
# Disc length: 4514 seconds
#
# Revision: 0
# Processed by: cddbd v1.5.1PL2 Copyright (c) Steve Scherf et al.
# Submitted via: CDex 1.51
#
DISCID=1d11a014
DTITLE=Ella Fitzgerald - Love Songs
DYEAR=1995
DGENRE=Jazz
TTITLE0=Every Time We Say Goodbye
TTITLE1=Cheek To Cheek
TTITLE2=I've Got You Under My Skin
TTITLE3=Let's Fall Iin Love
TTITLE4=Summer Time
TTITLE5=The Way You Look Tonight
TTITLE6=The Man I Love
TTITLE7=Lets Do It
TTITLE8=Georgia On My Mind
TTITLE9=Get Happy
TTITLE10=A Fine Romance
TTITLE11=Let's Face The Music And Dance
TTITLE12=Someone To Watch Over Me
TTITLE13=You Do Something To Me
TTITLE14=Stormy Weather
TTITLE15=Manhatten
TTITLE16=They Can't Take That Away From Me
TTITLE17=My Funny Valentine
TTITLE18=Misty
TTITLE19=The Lady Is A Tramp
EXTD=YEAR: 1995
EXTT0=
EXTT1=
EXTT2=
EXTT3=
EXTT4=
EXTT5=
EXTT6=
EXTT7=
EXTT8=
EXTT9=
EXTT10=
EXTT11=
EXTT12=
EXTT13=
EXTT14=
EXTT15=
EXTT16=
EXTT17=
EXTT18=
EXTT19=
PLAYORDER=
